<?xml version="1.0" encoding="UTF-8" standalone="no"?>
<!-- Created with Inkscape (http://www.inkscape.org/) -->

<svg
   version="1.1"
   id="svg1"
   width="2000"
   height="2000"
   viewBox="0 0 2000 2000"
   sodipodi:docname="logo_transparent.svg"
   inkscape:version="1.4.3 (0d15f75, 2025-12-25)"
   xmlns:inkscape="http://www.inkscape.org/namespaces/inkscape"
   xmlns:sodipodi="http://sodipodi.sourceforge.net/DTD/sodipodi-0.dtd"
   xmlns="http://www.w3.org/2000/svg"
   xmlns:svg="http://www.w3.org/2000/svg">
  <defs
     id="defs1" />
  <sodipodi:namedview
     id="namedview1"
     pagecolor="#ffffff"
     bordercolor="#000000"
     borderopacity="0.25"
     inkscape:showpageshadow="2"
     inkscape:pageopacity="0.0"
     inkscape:pagecheckerboard="true"
     inkscape:deskcolor="#d1d1d1"
     inkscape:zoom="0.29415642"
     inkscape:cx="659.51306"
     inkscape:cy="1171.1456"
     inkscape:window-width="1920"
     inkscape:window-height="1022"
     inkscape:window-x="540"
     inkscape:window-y="30"
     inkscape:window-maximized="1"
     inkscape:current-layer="g1"
     showborder="true" />
  <g
     inkscape:groupmode="layer"
     inkscape:label="Image"
     id="g1">
    <g
       id="g4">
      <path
         style="display:inline;fill:#ffffff;fill-opacity:1"
         d="m 1075.691,1417.75 c 0.9848,-1.5216 1.7115,-55.5522 0.8267,-61.4686 -0.7301,-4.8823 -0.8728,-4.9467 -18.5177,-8.3607 -11.5156,-2.2281 -51.2485,-10.7539 -65.5,-14.0549 -16.19065,-3.7502 -25.82124,-8.7188 -29.0676,-14.9965 -2.65339,-5.1311 -6.23329,-25.5719 -7.42033,-42.3693 -0.76696,-10.853 -1.03119,-50.6739 -0.82138,-123.7866 0.27117,-94.4955 0.49427,-107.9035 1.80931,-108.7347 2.03126,-1.2839 105.307,-1.2644 117.7894,0.022 19.58,2.0182 24.5004,3.5256 29.9118,9.1638 5.4345,5.6622 13.9023,26.3394 26.9367,65.7761 2.9887,9.0425 5.9229,17.03 6.5205,17.75 0.8546,1.0298 7.9427,1.3059 33.214,1.2939 18.4964,-0.01 32.764,-0.4176 33.6276,-0.9635 1.3192,-0.8338 1.5314,-17.2773 1.7606,-136.4026 0.2355,-122.41454 0.1083,-135.60681 -1.3214,-137.03656 C 1204.0616,862.20441 1199.6701,862 1171.4516,862 h -32.4055 l -1.4416,2.25 c -0.793,1.2375 -1.9728,4.275 -2.622,6.75 -1.6321,6.22227 -7.889,24.87512 -13.7531,41 -9.3405,25.68403 -14.8478,36.36497 -20.576,39.90519 -4.3418,2.68339 -14.7092,4.77476 -29.9223,6.03611 -18.506,1.53437 -112.97197,1.41783 -114.5311,-0.1413 -1.53944,-1.53944 -1.75988,-286.19722 -0.22475,-290.2349 L 956.9505,665 l 95.7747,0.0436 c 97.7616,0.0445 110.5022,0.40422 122.7748,3.46646 11.7237,2.92529 16.2644,6.06337 21.6899,14.98995 7.618,12.53372 33.1905,70.48682 46.9461,106.39039 2.6919,7.02594 5.1675,11.91703 6.4611,12.76481 2.989,1.95903 76.1685,0.008 78.263,-2.08675 1.1489,-1.1489 1.1903,-6.10828 0.2564,-30.71927 C 1328.5039,753.70713 1327.5479,727.225 1326.992,711 1323.1481,598.80731 1322.473,584.27491 1321.0244,582.52938 1319.8901,581.16264 1285.3349,581 996.07756,581 745.66168,581 672.12839,581.27161 671.2,582.2 c -1.76254,1.76254 -1.71488,65.15966 0.05,66.51517 0.6875,0.52803 12.05,4.02 25.25,7.75994 39.82473,11.28347 48.39674,14.60667 52.09617,20.19665 1.15448,1.74446 2.8157,6.91946 3.69159,11.5 C 756.50701,710.23649 756.5,709.71257 756.5,1003 c 0,293.4099 0.0626,288.7749 -4.14598,307 -2.53456,10.9758 -4.64528,14.3466 -11.13335,17.7796 -5.29181,2.8 -39.06149,14.5579 -59.45497,20.7009 -4.80386,1.447 -9.41636,3.313 -10.25,4.1467 -1.2866,1.2866 -1.5157,6.0296 -1.5157,31.3791 0,16.9836 0.42062,30.9698 0.97525,32.4286 L 671.9505,1419 h 201.46573 c 160.07447,0 201.63197,-0.2568 202.27477,-1.25 z"
         id="path4"
         sodipodi:nodetypes="cssssssssscssscsssscssssssscssssssssssssssssssssssc"
         inkscape:label="F" />
      <path
         style="display:inline;fill:#22c55e;fill-opacity:1"
         d="m 1045,1686.9335 c 34.1007,-3.2784 59.117,-6.6441 80.8506,-10.8776 13.1439,-2.5604 63.0441,-15.7569 76.6494,-20.2705 14.3586,-4.7636 53.2707,-19.6363 68,-25.9904 18.6283,-8.0361 62.6725,-30.914 80,-41.5545 56.6136,-34.7651 92.6639,-63.4265 140.6742,-111.8414 31.2722,-31.5358 44.5211,-47.2008 71.1456,-84.1199 41.487,-57.5283 81.899,-141.8527 100.5357,-209.7792 6.5975,-24.0463 8.257,-30.718 12.1305,-48.7691 3.8771,-18.0679 4.8233,-23.3965 7.0552,-39.7309 0.5636,-4.125 1.4615,-10.65 1.9953,-14.5 2.5008,-18.037 3.9208,-41.438 4.5659,-75.2425 0.3864,-20.2502 0.3885,-38.49247 0,-40.53842 -0.5014,-2.67251 -5.4013,-9.91975 -17.4025,-25.73898 -9.1875,-12.11048 -18.9199,-25.0478 -21.6274,-28.74958 -9.0094,-12.31781 -27.4495,-36.5852 -36.649,-48.23052 -4.9965,-6.325 -11.2919,-14.65 -13.9896,-18.5 -2.6977,-3.85 -8.508,-11.5 -12.9118,-17 -4.4037,-5.5 -10.1217,-12.925 -12.7066,-16.5 -2.585,-3.575 -7.9681,-10.775 -11.9625,-16 -3.9944,-5.225 -13.6052,-17.99605 -21.3572,-28.38011 -7.7521,-10.38406 -17.376,-22.98406 -21.3864,-28 C 1514.6036,731.60395 1507.4727,722.325 1502.7676,716 1494.5379,704.93682 1490,699.78492 1490,701.50484 c 0,0.44815 3.3752,7.2399 7.5004,15.0928 16.0481,30.5494 36.1523,77.44903 45.8252,106.90236 4.9967,15.21446 17.2133,61.82169 21.0771,80.41067 4.7485,22.84476 6.8245,39.46294 10.5872,84.7466 2.1635,26.03863 0.7601,92.28433 -2.4574,115.99653 -0.287,2.1154 -1.2311,9.67 -2.0979,16.788 -1.4561,11.9579 -2.785,19.8974 -6.8734,41.0671 -8.3575,43.2741 -26.241,98.2772 -45.0287,138.4911 -3.4689,7.425 -7.2615,15.703 -8.428,18.3957 -3.0158,6.9612 -17.8349,33.2651 -27.9462,49.6043 -18.4884,29.8761 -35.9668,54.0465 -55.8873,77.2849 -29.2107,34.0761 -61.7654,65.5414 -92.771,89.6665 -48.1518,37.4664 -103.9615,70.0801 -154.3057,90.1724 -58.0814,23.1801 -113.1042,37.0632 -169.6943,42.8165 -5.5,0.5592 -14.63015,1.4764 -20.28922,2.0382 -5.65907,0.5618 -24.33407,1.0195 -41.5,1.0172 -32.84688,0 -59.52524,-1.8019 -89.71078,-6.0437 -27.14106,-3.814 -36.51196,-5.6956 -74.91325,-15.0417 -11.22729,-2.7325 -20.90145,-4.8054 -21.49814,-4.6065 -2.13435,0.7114 25.94297,10.8568 44.75234,16.1707 36.32064,10.2609 65.39857,16.033 108.65905,21.5692 35.36904,4.5263 98.4027,5.9275 130,2.8898 z"
         id="path39"
         sodipodi:nodetypes="scsssssssssssscsssssssscssssssssssssssssscssss"
         inkscape:label="arc_right" />
      <path
         style="display:inline;fill:#22c55e;fill-opacity:1"
         d="m 503.02448,1282.8682 c -21.28558,-40.3538 -43.37639,-93.8776 -52.98126,-128.3682 -12.01942,-43.1611 -19.18149,-79.805 -22.9654,-117.5 -0.57971,-5.775 -1.50937,-14.8517 -2.06592,-20.1704 C 424.45536,1011.5108 424,991.01521 424,971.28376 c 0,-34.02469 0.97284,-52.99393 4.00198,-78.03376 0.54891,-4.5375 1.41662,-11.7375 1.92825,-16 2.97058,-24.74859 9.93151,-58.89678 17.17393,-84.25 16.49274,-57.73539 37.93246,-107.24754 68.81555,-158.92022 29.42492,-49.23292 63.80701,-91.27126 111.65139,-136.5141 21.5085,-20.33897 60.01336,-51.02577 82.4289,-65.69248 26.94367,-17.62951 43.3288,-27.061 70,-40.29291 41.66749,-20.67176 69.58878,-31.08819 120.5,-44.95422 31.9464,-8.70082 60.58072,-13.45514 107,-17.76579 19.6755,-1.82713 81.11,-1.50062 102,0.54212 36.9061,3.60889 75.4973,10.84945 114,21.38891 23.0733,6.31593 24.2383,6.58722 23,5.35579 -4.6195,-4.5938 -59.8456,-21.76351 -95,-29.53539 -51.7805,-11.44754 -94.2162,-16.14958 -144.5,-16.01117 -73.59951,0.20259 -145.10385,11.8846 -215.66688,35.23453 -51.01413,16.88103 -96.41601,37.97162 -146.33312,67.9763 -38.33468,23.0426 -72.03544,48.3259 -107.55195,80.68863 -37.97599,34.60381 -69.78625,70.25566 -98.14719,110 -10.93128,15.31883 -33.77401,52.10755 -45.32693,73 -5.79715,10.48364 -20.00305,40.13571 -28.98473,60.5 -13.95636,31.64347 -29.29163,79.37788 -37.93516,118.08154 -12.57972,56.32906 -19.96313,136.46467 -16.02176,173.89186 1.22836,11.6645 1.98033,12.9347 23.9479,40.451 5.2359,6.5585 14.01982,18.1224 19.51982,25.6977 5.5,7.5753 14.54041,19.5343 20.0898,26.5756 5.54939,7.0413 18.27515,23.6023 28.27946,36.8023 10.00431,13.2 22.90902,30.075 28.67714,37.5 5.76811,7.425 12.84236,16.7177 15.72054,20.6504 7.06925,9.6594 54.9548,73.2694 61.08348,81.1418 2.69417,3.4607 5.11856,6.0721 5.38755,5.8032 0.26898,-0.269 -4.55209,-10.0462 -10.71349,-21.7272 z"
         id="path47"
         sodipodi:nodetypes="ssssssssssssssssssssssssssssssssssss"
         inkscape:label="arc_left" />
    </g>
  </g>
</svg>
